<?xml version="1.0" standalone="no"?>
<!DOCTYPE svg PUBLIC "-//W3C//DTD SVG 20010904//EN"
 "http://www.w3.org/TR/2001/REC-SVG-20010904/DTD/svg10.dtd">
<svg version="1.0" xmlns="http://www.w3.org/2000/svg"
 width="1920.000000pt" height="1920.000000pt" viewBox="0 0 1920.000000 1920.000000"
 preserveAspectRatio="xMidYMid meet">
<metadata>
Created by potrace 1.14, written by Peter Selinger 2001-2017
</metadata>
<g transform="translate(0.000000,1920.000000) scale(0.100000,-0.100000)"
fill="#000000" stroke="none">
<path d="M9270 18406 c-107 -62 -206 -119 -220 -127 -14 -8 -27 -16 -30 -19
-3 -3 -14 -10 -25 -16 -75 -41 -150 -84 -290 -165 -88 -51 -173 -99 -190 -108
-16 -9 -32 -18 -35 -21 -3 -3 -14 -10 -25 -16 -51 -28 -115 -64 -165 -94 -30
-18 -68 -40 -85 -49 -35 -19 -223 -128 -245 -142 -8 -5 -35 -20 -60 -34 -69
-39 -127 -73 -215 -125 -44 -26 -100 -58 -125 -72 -70 -39 -382 -219 -415
-240 -30 -19 -218 -126 -310 -178 -27 -15 -66 -37 -85 -49 -19 -12 -43 -24
-52 -27 -10 -4 -18 -10 -18 -15 0 -5 -4 -9 -10 -9 -5 0 -44 -20 -86 -45 -41
-25 -77 -45 -80 -45 -3 0 -113 -68 -123 -76 -2 -2 -5 -180 -7 -396 -4 -442
-14 -1236 -16 -1255 -1 -7 -3 -13 -6 -13 -4 0 -91 49 -133 75 -9 6 -32 18 -50
29 -19 10 -77 44 -129 74 -52 31 -96 54 -96 52 -1 -3 -10 2 -20 11 -18 15
-170 106 -204 122 -8 4 -28 16 -45 27 -16 11 -37 23 -45 27 -8 4 -43 24 -78
45 -34 21 -64 38 -66 38 -3 0 -51 28 -108 61 -57 34 -125 74 -153 89 -27 14
-84 47 -125 72 -105 63 -169 98 -181 98 -6 0 -30 -13 -54 -30 -24 -16 -46 -30
-50 -30 -3 0 -21 -11 -39 -25 -18 -14 -38 -25 -44 -25 -7 0 -12 -4 -12 -10 0
-5 -5 -10 -11 -10 -6 0 -16 -6 -24 -12 -7 -7 -36 -26 -64 -43 -29 -16 -93 -57
-145 -90 -51 -33 -101 -65 -112 -72 -50 -31 -155 -98 -209 -133 -33 -22 -88
-56 -123 -76 -34 -20 -68 -42 -75 -48 -7 -7 -16 -13 -20 -14 -12 -1 -237 -145
-258 -164 -11 -10 -22 -18 -26 -18 -5 -1 -24 -11 -43 -23 -19 -12 -46 -29 -60
-37 -39 -24 -140 -88 -195 -125 -27 -17 -106 -67 -175 -110 -69 -43 -130 -85
-137 -93 -6 -7 -15 -13 -20 -13 -8 0 -106 -57 -126 -74 -7 -5 -24 -16 -39 -24
-16 -8 -28 -18 -28 -23 0 -4 -5 -8 -11 -8 -5 0 -235 -143 -510 -317 l-500
-318 6 -1925 c5 -1715 6 -2078 3 -2099 0 -3 0 -9 1 -13 4 -24 1 -460 -4 -468
-3 -5 -2 -11 2 -13 5 -3 6 -112 3 -242 -3 -130 -4 -238 -2 -240 2 -1 5 -823 7
-1826 3 -1002 8 -1826 12 -1830 11 -10 117 -69 265 -148 34 -18 75 -42 91 -53
15 -11 27 -16 27 -12 0 4 8 0 18 -8 9 -8 60 -38 112 -65 114 -60 190 -101 290
-158 41 -23 107 -59 145 -80 39 -20 117 -63 175 -95 135 -73 207 -113 300
-163 41 -22 86 -48 100 -56 14 -9 39 -23 55 -31 17 -8 46 -24 65 -36 19 -11
80 -44 135 -74 169 -89 229 -122 257 -142 16 -11 28 -16 28 -13 0 3 12 -2 27
-13 16 -10 62 -37 103 -59 63 -34 473 -257 660 -361 224 -123 447 -243 462
-248 10 -3 18 -10 18 -15 0 -5 4 -9 9 -9 5 0 64 -31 132 -68 68 -38 158 -87
199 -109 103 -55 205 -111 265 -145 28 -15 79 -44 115 -63 36 -20 88 -48 115
-63 28 -15 95 -52 150 -81 55 -30 105 -57 110 -61 6 -4 42 -24 80 -44 39 -20
77 -41 85 -47 18 -11 369 -203 390 -212 8 -4 38 -20 65 -35 148 -83 487 -270
535 -295 177 -94 406 -222 412 -231 4 -6 8 -8 8 -4 0 4 27 -8 59 -27 33 -19
64 -35 69 -35 6 0 12 -4 14 -8 2 -4 30 -21 63 -37 33 -15 62 -31 65 -34 3 -4
16 -12 30 -18 14 -7 57 -30 95 -52 39 -22 95 -52 125 -68 30 -15 57 -30 60
-33 3 -3 23 -15 45 -27 22 -11 67 -36 100 -54 155 -84 185 -100 250 -135 39
-20 87 -48 107 -61 21 -12 39 -23 41 -23 3 0 37 -18 78 -41 86 -48 164 -90
309 -169 58 -31 132 -72 165 -90 33 -19 83 -46 110 -60 28 -15 61 -33 73 -41
20 -12 25 -12 35 2 7 9 27 20 45 24 18 4 38 15 45 26 6 10 20 19 29 19 10 0
18 5 18 10 0 6 9 10 20 10 11 0 20 4 20 9 0 5 26 22 58 37 31 16 64 36 72 45
9 10 32 20 52 24 20 4 45 15 57 26 11 10 25 19 31 19 5 0 10 5 10 10 0 6 9 10
20 10 11 0 20 4 20 10 0 5 11 12 25 16 14 3 25 10 25 15 0 5 9 9 20 9 11 0 20
5 20 10 0 6 9 10 20 10 11 0 20 5 20 10 0 6 7 10 15 10 8 0 15 4 15 9 0 5 14
14 30 20 17 5 33 17 36 26 3 8 15 15 25 15 10 0 19 5 19 10 0 6 9 10 20 10 11
0 20 5 20 10 0 6 5 10 11 10 19 0 83 33 100 52 9 10 24 18 33 18 9 0 16 4 16
10 0 5 11 12 25 16 14 3 25 10 25 15 0 5 11 9 25 9 14 0 30 9 37 20 7 11 19
20 26 20 7 0 20 7 28 15 9 8 25 15 38 15 12 0 28 9 36 20 8 11 22 20 32 20 10
0 18 5 18 10 0 6 7 10 15 10 8 0 15 4 15 8 0 5 20 17 45 28 25 10 45 22 45 26
0 4 8 8 18 8 10 0 24 9 32 20 8 10 26 22 41 25 15 3 35 15 45 26 9 10 23 19
31 19 7 0 13 5 13 10 0 6 9 10 20 10 11 0 20 4 20 9 0 5 11 12 25 15 14 4 25
11 25 16 0 6 11 10 25 10 14 0 30 9 37 20 7 11 21 20 30 20 10 0 18 4 18 10 0
5 11 12 25 16 14 3 25 10 25 15 0 5 9 9 20 9 11 0 20 5 20 10 0 6 9 10 20 10
11 0 20 5 20 10 0 6 7 10 15 10 8 0 15 5 15 10 0 6 8 10 19 10 10 0 24 7 31
15 7 8 19 15 26 15 8 0 14 5 14 10 0 6 9 10 20 10 11 0 20 5 20 10 0 6 7 10
15 10 8 0 15 4 15 8 0 5 19 17 43 27 23 10 49 27 58 37 9 10 24 18 33 18 9 0
16 5 16 10 0 6 5 10 11 10 21 0 100 41 106 55 3 8 14 15 24 15 10 0 19 4 19
10 0 5 11 12 25 16 14 3 25 10 25 15 0 5 8 9 18 9 10 0 24 9 32 20 9 12 26 20
43 20 16 0 39 11 55 25 15 14 35 25 45 25 11 0 32 14 47 30 15 17 37 30 48 30
11 0 25 7 32 15 7 8 19 15 26 15 8 0 14 5 14 10 0 6 8 10 18 10 10 0 24 9 32
20 8 11 18 20 23 20 19 0 98 42 104 55 3 8 14 15 24 15 10 0 19 4 19 9 0 5 16
12 35 15 19 4 35 11 35 16 0 6 8 10 18 10 9 0 23 9 30 20 7 11 19 20 27 20 8
0 15 5 15 10 0 6 8 10 19 10 10 0 24 7 31 15 7 8 18 15 24 15 6 0 18 9 26 20
8 11 25 20 37 20 13 0 23 5 23 10 0 6 8 10 19 10 10 0 24 7 31 15 7 8 19 15
26 15 8 0 14 5 14 10 0 6 8 10 18 10 10 0 24 9 32 20 8 11 19 20 24 20 17 0
121 54 136 71 8 9 30 20 48 23 17 4 32 12 32 17 0 5 8 9 18 9 9 0 23 9 30 20
7 11 19 20 27 20 8 0 15 5 15 10 0 6 8 10 19 10 10 0 24 7 31 15 7 8 19 15 26
15 8 0 14 5 14 10 0 6 9 10 20 10 11 0 20 5 20 10 0 6 7 10 15 10 8 0 15 5 15
10 0 6 8 10 19 10 10 0 24 7 31 15 7 8 19 15 26 15 8 0 14 5 14 10 0 6 13 10
28 10 16 0 33 8 42 21 8 11 30 27 48 36 17 8 32 19 32 24 0 5 11 9 25 9 14 0
25 5 25 10 0 6 9 10 20 10 11 0 20 4 20 9 0 5 11 12 25 15 14 4 25 11 25 16 0
6 8 10 18 10 9 0 23 9 30 20 7 11 19 20 27 20 8 0 15 4 15 9 0 5 16 12 35 15
19 4 35 11 35 16 0 6 8 10 18 10 10 0 24 9 32 20 8 11 20 20 27 20 7 0 13 5
13 10 0 6 8 10 19 10 10 0 24 7 31 15 7 8 19 15 26 15 8 0 14 5 14 10 0 6 13
10 28 10 16 0 34 8 42 20 8 12 40 33 70 47 30 15 62 35 71 45 9 10 26 18 37
18 12 0 32 11 46 25 14 14 33 25 43 25 10 0 25 9 33 20 9 12 26 20 43 20 15 0
30 7 33 15 4 8 15 15 25 15 10 0 19 5 19 10 0 6 6 10 14 10 8 0 21 8 28 19 7
10 28 22 46 26 18 4 38 15 45 26 6 10 20 19 29 19 10 0 18 5 18 10 0 6 9 10
20 10 11 0 20 4 20 9 0 5 13 12 29 16 16 3 37 15 47 26 9 10 21 19 27 19 5 0
17 8 26 19 9 10 31 22 49 25 17 4 32 12 32 17 0 5 9 9 20 9 11 0 20 5 20 10 0
6 7 10 15 10 8 0 15 5 15 10 0 6 9 10 20 10 11 0 20 5 20 10 0 6 9 10 20 10
11 0 23 7 26 15 4 8 14 15 23 15 9 0 23 9 31 20 8 11 20 20 27 20 7 0 13 5 13
10 0 6 7 10 15 10 21 0 95 33 95 42 0 5 8 8 18 8 10 0 24 9 32 20 8 10 26 22
41 25 15 3 35 15 45 26 9 10 23 19 31 19 7 0 13 5 13 10 0 6 9 10 20 10 11 0
20 4 20 10 0 5 11 12 25 16 14 3 25 10 25 15 0 5 9 9 20 9 11 0 20 5 20 10 0
6 6 10 13 10 7 0 19 9 27 19 7 11 32 23 54 27 25 4 50 17 67 35 15 16 36 29
48 29 12 0 21 5 21 10 0 6 8 10 19 10 10 0 24 7 31 15 7 8 18 15 24 15 6 0 18
9 26 20 8 11 25 20 37 20 13 0 23 4 23 10 0 5 11 12 24 16 14 3 32 14 42 25 9
10 23 19 31 19 7 0 13 5 13 10 0 6 9 10 20 10 11 0 20 4 20 9 0 5 13 12 29 16
15 3 38 15 49 25 12 11 26 20 32 20 5 0 10 5 10 10 0 6 9 10 20 10 11 0 20 4
20 10 0 5 11 12 25 16 14 3 25 10 25 15 0 5 9 9 20 9 11 0 20 5 20 10 0 6 7
10 15 10 8 0 20 9 27 20 7 11 19 20 26 20 22 0 85 32 103 52 9 10 26 18 38 18
11 0 21 4 21 8 0 5 20 17 45 28 25 10 45 22 45 26 0 4 7 8 15 8 8 0 29 13 45
29 l30 28 0 4579 0 4580 -97 52 c-139 74 -215 116 -315 173 -49 27 -92 49 -97
49 -5 0 -11 3 -13 8 -3 7 -32 24 -133 75 -33 17 -62 34 -65 37 -3 3 -27 16
-55 30 -27 14 -52 28 -55 31 -3 3 -43 25 -90 50 -47 24 -87 46 -90 49 -3 3
-34 20 -70 38 -36 18 -78 41 -95 51 -31 18 -141 79 -210 116 -64 35 -175 95
-235 128 -30 17 -80 44 -110 59 -30 16 -59 33 -65 37 -5 5 -39 24 -75 43 -36
20 -85 47 -110 60 -25 14 -71 39 -102 57 -32 17 -82 44 -110 60 -29 15 -84 45
-123 66 -38 21 -74 41 -80 45 -5 4 -41 24 -80 44 -38 21 -90 49 -115 63 -25
13 -88 47 -140 75 -52 28 -106 58 -120 67 -48 33 -128 62 -182 66 -3 0 -9 3
-13 7 -4 3 -20 2 -36 -2 -16 -5 -31 -8 -32 -7 -6 4 -112 -48 -119 -58 -4 -5
-8 -7 -8 -3 0 3 -74 -31 -165 -77 -91 -46 -165 -82 -165 -79 0 3 -7 -2 -16
-10 -8 -9 -22 -16 -30 -16 -8 0 -14 -5 -14 -12 0 -6 -2 -9 -5 -6 -3 3 -247
-116 -542 -263 -295 -148 -539 -269 -544 -269 -22 0 -28 74 -34 390 -7 320
-13 617 -19 865 -3 110 -6 240 -7 288 l-2 88 -66 36 c-36 20 -99 56 -138 80
-40 24 -76 43 -79 43 -4 0 -30 14 -58 32 -28 17 -76 45 -106 61 -30 17 -67 38
-82 49 -14 10 -29 18 -32 18 -3 0 -29 14 -58 31 -29 17 -75 44 -103 59 -62 33
-118 65 -269 152 -65 37 -120 68 -123 68 -2 0 -29 16 -59 35 -30 19 -56 35
-58 35 -2 0 -33 16 -68 36 -34 21 -97 56 -138 79 -73 41 -113 64 -185 105 -54
31 -100 57 -121 68 -11 6 -54 31 -96 56 -43 25 -81 46 -85 46 -5 0 -32 16 -60
35 -29 19 -54 35 -57 35 -2 0 -67 35 -143 79 -76 43 -158 89 -183 103 -25 14
-106 60 -180 103 -74 43 -157 90 -185 105 -27 15 -86 48 -130 74 -44 25 -84
46 -90 46 -5 0 -98 -51 -205 -114z m266 -777 c6 -5 69 -41 140 -80 123 -69
178 -98 316 -173 35 -18 122 -66 193 -106 72 -40 157 -88 190 -106 33 -17 112
-60 175 -94 63 -35 142 -77 175 -95 33 -18 119 -65 190 -105 72 -40 157 -87
190 -105 140 -76 176 -98 168 -105 -14 -13 -754 -502 -887 -585 -70 -44 -265
-170 -434 -281 -169 -110 -363 -237 -431 -281 l-124 -81 -311 206 c-172 114
-343 225 -380 247 -37 22 -229 146 -426 275 -197 129 -423 278 -504 330 -80
52 -146 98 -146 102 0 4 21 19 48 34 116 67 272 161 333 200 36 23 90 54 120
69 30 16 86 49 125 76 39 26 87 54 106 62 20 9 69 38 110 65 40 27 97 61 127
77 30 15 84 46 120 70 36 23 122 75 191 115 69 40 152 90 185 111 33 20 92 55
130 76 39 22 101 60 138 85 l69 46 46 -20 c26 -11 52 -24 58 -29z m-2236
-1893 c14 -12 46 -33 73 -46 26 -13 52 -29 58 -37 6 -7 17 -13 23 -13 7 0 23
-11 36 -26 14 -14 45 -35 69 -47 68 -33 81 -41 81 -49 0 -5 6 -8 13 -8 8 0 24
-11 37 -25 13 -14 29 -25 36 -25 6 0 17 -7 24 -15 7 -9 37 -27 65 -40 29 -13
64 -34 77 -47 28 -27 50 -41 98 -64 19 -10 47 -28 62 -42 29 -26 62 -48 91
-58 9 -3 17 -10 17 -15 0 -5 6 -9 14 -9 7 0 20 -7 27 -16 7 -9 22 -20 34 -25
31 -15 63 -34 82 -51 10 -8 35 -22 56 -32 20 -9 37 -21 37 -26 0 -6 5 -10 12
-10 6 0 20 -7 30 -17 20 -18 44 -32 103 -62 22 -10 51 -31 64 -45 14 -14 30
-26 37 -26 7 0 17 -6 21 -13 4 -6 22 -19 38 -27 17 -8 38 -21 48 -29 19 -16
51 -35 82 -50 12 -5 27 -16 34 -25 7 -9 18 -16 24 -16 5 0 25 -11 43 -25 18
-14 36 -25 40 -25 4 0 18 -10 31 -22 l23 -21 0 -688 c0 -448 3 -690 10 -694 7
-4 10 -777 10 -2285 0 -1508 3 -2281 10 -2285 7 -4 10 -779 10 -2294 0 -1518
3 -2290 10 -2297 7 -7 9 -384 8 -1111 l-3 -1100 -110 63 c-60 35 -137 78 -170
95 -33 18 -79 45 -103 61 -23 16 -59 36 -79 45 -21 8 -56 27 -78 42 -22 15
-85 51 -140 81 -55 29 -119 66 -143 82 -23 16 -59 36 -79 45 -21 8 -57 28 -80
45 -24 16 -60 36 -80 45 -21 8 -56 27 -78 42 -22 15 -85 51 -140 81 -55 29
-119 66 -143 82 -23 16 -58 36 -77 44 -19 7 -62 32 -96 54 -34 22 -67 40 -73
40 -6 0 -29 12 -51 27 -46 31 -293 172 -383 219 -35 18 -70 38 -77 44 -7 6
-48 30 -92 54 -43 24 -143 80 -223 126 -80 46 -172 98 -205 115 -33 18 -86 47
-117 66 -55 32 -82 48 -261 150 -43 24 -103 59 -135 78 -31 19 -84 49 -117 66
-33 18 -125 69 -205 115 -80 46 -179 102 -221 125 -42 23 -89 51 -105 62 -16
11 -51 31 -79 45 -27 13 -115 62 -195 108 -80 46 -179 102 -220 125 -41 23
-97 56 -124 73 -28 18 -55 32 -61 32 -5 0 -33 15 -60 33 -28 18 -95 57 -150
87 -55 29 -119 66 -143 82 -23 16 -59 36 -79 45 -21 8 -57 28 -80 45 -24 16
-60 36 -80 45 -21 8 -56 28 -78 43 -22 15 -85 51 -140 81 -55 29 -127 70 -159
91 -33 21 -64 38 -70 38 -6 0 -29 12 -51 27 -22 15 -74 46 -115 69 -41 22
-140 78 -220 124 -80 46 -172 98 -205 115 -33 18 -86 47 -117 66 -32 19 -92
54 -135 78 -43 24 -101 58 -129 75 l-52 31 -6 420 c-3 231 -8 803 -11 1270 -3
468 -15 2029 -25 3470 -11 1441 -20 2653 -20 2694 0 71 1 73 18 58 10 -10 23
-17 29 -17 16 0 70 -29 83 -45 7 -8 21 -15 32 -15 11 0 38 -16 61 -35 22 -19
50 -35 63 -35 12 0 28 -7 35 -16 7 -9 22 -20 34 -25 11 -5 27 -13 35 -18 8 -5
31 -16 51 -25 20 -9 42 -22 49 -31 7 -8 23 -15 36 -15 12 0 25 -4 29 -9 3 -6
18 -16 33 -24 103 -55 128 -67 138 -67 6 0 17 -7 24 -16 8 -8 64 -40 126 -70
62 -30 123 -63 136 -72 13 -10 46 -29 73 -42 28 -13 57 -30 66 -37 26 -21 91
-53 110 -53 9 0 22 -7 29 -15 7 -9 29 -23 49 -32 20 -9 46 -25 59 -34 13 -10
74 -43 136 -73 62 -30 118 -62 126 -70 7 -9 17 -16 22 -16 18 0 82 -33 111
-57 16 -13 48 -28 73 -34 27 -7 46 -18 49 -30 4 -11 16 -19 27 -19 12 0 35
-10 52 -23 17 -13 46 -30 64 -38 l32 -14 0 -2596 c-1 -1428 0 -2600 1 -2605 1
-5 0 -13 -1 -19 -1 -5 -1 -28 0 -50 1 -22 3 -76 4 -120 l1 -80 50 -26 c28 -14
111 -57 185 -96 231 -121 298 -156 418 -218 65 -34 185 -96 267 -139 83 -44
159 -84 170 -89 11 -6 27 -14 35 -18 8 -4 76 -39 150 -77 234 -121 273 -142
287 -153 7 -6 13 -8 13 -4 0 4 10 0 23 -8 13 -8 90 -50 173 -92 82 -43 182
-95 222 -117 41 -21 82 -43 93 -48 10 -6 29 -15 42 -22 118 -62 221 -114 317
-163 63 -32 123 -65 133 -73 9 -8 17 -12 17 -7 0 4 6 3 13 -3 6 -5 98 -54 202
-107 105 -54 196 -102 203 -108 7 -5 14 -8 17 -5 2 2 7 508 10 1123 3 616 7
1568 10 2115 3 547 7 1465 10 2040 3 575 8 1540 11 2145 6 1098 7 1483 5 1540
-1 27 -11 36 -99 86 -53 32 -110 64 -127 73 -45 25 -119 69 -145 86 -16 11
-22 25 -22 50 0 56 14 343 17 365 2 11 4 195 4 408 l1 388 23 -6 c12 -4 33
-17 47 -29z m4273 -233 c-2 -49 -10 -233 -18 -410 -8 -178 -15 -329 -15 -337
0 -8 -17 -20 -37 -26 -21 -7 -54 -20 -73 -30 -19 -10 -79 -40 -134 -66 -119
-59 -176 -117 -176 -180 0 -22 0 -48 0 -59 -1 -20 -1 -296 -1 -325 2 -268 1
-362 -4 -370 -3 -6 -3 -10 2 -10 6 0 9 -110 3 -130 -1 -3 -1 -23 -1 -45 3
-111 1 -288 -4 -296 -4 -5 -2 -9 2 -9 5 0 7 -15 6 -32 -3 -63 -4 -94 -4 -228
0 -74 0 -142 0 -150 -1 -158 11 -7474 13 -7476 4 -3 277 161 301 181 9 8 17
12 17 9 0 -3 13 4 29 15 16 12 32 21 35 21 3 0 28 16 55 35 26 19 51 35 54 35
4 0 55 30 114 66 59 37 164 100 233 142 69 41 144 88 167 104 23 15 44 28 46
28 2 0 39 21 82 48 42 26 96 58 119 71 22 13 43 28 44 32 2 5 9 9 15 9 7 1 44
21 82 46 39 24 78 47 88 50 9 4 17 10 17 14 0 4 8 10 18 13 17 6 73 37 82 47
3 3 75 47 160 98 356 213 696 421 707 431 7 6 15 11 18 11 6 -1 127 70 135 79
3 3 14 11 25 17 57 30 91 50 95 54 3 3 50 32 105 65 55 33 129 78 165 100 94
58 99 61 160 96 30 18 69 43 86 56 17 13 36 23 43 23 7 0 18 6 26 13 7 6 39
28 72 48 l60 37 6 983 c4 541 8 1387 8 1879 1 492 5 1158 8 1480 l6 585 85 47
c47 26 105 57 129 68 24 11 56 30 72 41 32 23 256 148 334 187 28 14 63 34 79
45 16 11 56 35 90 52 98 51 319 175 332 186 7 6 41 25 76 43 57 29 158 86 403
224 44 24 107 59 140 77 33 17 105 57 160 88 55 31 104 57 108 57 8 0 4 -3122
-9 -6288 l-6 -1494 -45 -19 c-25 -11 -58 -29 -74 -40 -16 -11 -87 -52 -157
-91 -70 -39 -163 -91 -207 -116 -44 -25 -102 -56 -130 -70 -27 -14 -62 -33
-78 -44 -15 -11 -85 -51 -155 -90 -70 -39 -161 -90 -202 -113 -172 -97 -242
-136 -364 -204 -71 -39 -135 -76 -142 -82 -7 -6 -41 -25 -76 -43 -35 -18 -99
-53 -143 -78 -44 -25 -138 -78 -209 -117 -71 -39 -135 -76 -142 -82 -7 -6 -41
-25 -76 -43 -35 -18 -128 -70 -208 -116 -80 -46 -167 -95 -195 -108 -27 -14
-63 -34 -79 -45 -16 -11 -56 -35 -90 -52 -33 -17 -126 -69 -206 -115 -80 -46
-167 -95 -195 -108 -27 -14 -62 -33 -78 -44 -15 -11 -85 -51 -155 -90 -70 -39
-163 -91 -207 -116 -44 -25 -102 -56 -130 -70 -27 -14 -62 -33 -78 -44 -15
-11 -85 -51 -155 -90 -70 -39 -162 -90 -204 -114 -43 -24 -113 -64 -155 -88
-43 -24 -134 -75 -203 -113 -69 -38 -143 -81 -165 -96 -22 -15 -44 -27 -50
-27 -6 0 -33 -14 -61 -32 -27 -17 -76 -46 -109 -63 -33 -17 -125 -69 -205
-115 -80 -46 -167 -95 -195 -108 -27 -14 -62 -33 -78 -44 -15 -11 -85 -51
-155 -90 -70 -39 -163 -91 -207 -116 -44 -25 -102 -56 -130 -70 -27 -14 -62
-33 -78 -44 -15 -11 -85 -51 -155 -90 -70 -39 -161 -90 -202 -113 -41 -23
-100 -57 -132 -74 l-56 -31 -6 102 c-3 57 -17 1255 -31 2663 -14 1408 -37
3584 -50 4835 -13 1251 -29 2718 -34 3260 -6 542 -13 1145 -16 1340 l-6 355
74 48 c40 26 78 47 85 47 6 0 99 58 206 130 108 71 211 136 229 144 19 7 122
72 229 144 108 72 211 137 230 145 19 8 116 69 215 135 100 67 197 127 216
136 19 8 59 30 88 50 30 20 54 36 55 36 1 0 0 -39 -3 -87z m-6448 -319 c21 -8
92 -52 158 -96 66 -44 135 -87 155 -95 19 -8 87 -49 151 -92 64 -43 141 -91
170 -106 30 -14 104 -59 165 -99 61 -40 145 -93 186 -117 41 -24 114 -68 162
-99 48 -30 120 -75 160 -99 40 -24 107 -65 148 -91 41 -26 96 -59 123 -74 26
-15 47 -30 47 -34 0 -8 -478 -323 -586 -387 -37 -22 -282 -182 -545 -355 -262
-173 -538 -355 -614 -404 l-137 -90 -121 62 c-271 139 -430 222 -441 231 -6 4
-96 52 -201 106 -397 204 -577 298 -790 411 -55 30 -137 72 -183 96 -45 23
-81 46 -79 51 3 9 100 72 207 134 25 14 146 92 270 173 332 217 625 406 751
485 62 39 241 155 398 259 286 190 376 245 397 246 6 0 28 -7 49 -16z m9133
-56 c49 -29 117 -69 151 -88 34 -19 90 -52 124 -73 34 -21 82 -47 107 -59 25
-11 65 -35 90 -52 25 -17 79 -49 120 -72 41 -22 102 -57 135 -76 33 -19 105
-61 159 -92 54 -31 111 -66 127 -77 15 -11 44 -26 63 -34 20 -8 70 -38 112
-65 42 -28 81 -50 87 -50 6 0 38 -17 71 -39 34 -21 107 -65 164 -97 56 -33
136 -80 177 -105 l75 -46 -69 -46 c-37 -25 -92 -57 -122 -72 -30 -16 -92 -53
-139 -85 -47 -31 -116 -74 -155 -95 -38 -21 -99 -57 -135 -80 -69 -45 -238
-147 -332 -201 -31 -18 -76 -45 -100 -61 -24 -16 -77 -49 -118 -72 -41 -24
-111 -68 -156 -97 -45 -28 -105 -64 -135 -80 -30 -15 -93 -53 -141 -85 -48
-32 -104 -66 -126 -74 -44 -18 -30 -25 -265 125 -56 36 -136 85 -177 109 -41
24 -124 76 -185 116 -60 39 -141 89 -180 110 -38 21 -122 73 -185 115 -63 42
-146 94 -185 115 -38 21 -122 73 -185 116 -64 42 -139 88 -168 103 -29 15
-120 71 -202 125 -82 55 -159 102 -171 106 -23 8 -19 11 186 120 44 23 123 66
175 95 52 29 122 67 155 85 33 17 119 65 190 105 72 40 157 87 190 105 33 18
89 48 125 67 36 19 124 68 195 108 72 40 166 92 210 115 44 23 123 66 175 95
136 76 163 90 172 90 4 0 47 -24 96 -52z m-2235 -1687 c23 -15 66 -40 94 -55
29 -14 86 -47 127 -74 41 -26 118 -72 171 -102 54 -30 131 -76 172 -102 40
-27 97 -60 126 -74 28 -15 78 -44 110 -66 32 -22 74 -46 94 -55 20 -8 68 -36
107 -62 39 -27 95 -61 125 -76 30 -15 77 -42 105 -60 28 -17 107 -65 176 -105
69 -40 155 -92 191 -115 36 -24 85 -53 108 -65 l43 -21 -7 -402 c-9 -604 -23
-1777 -35 -2952 -6 -577 -13 -1070 -16 -1094 l-6 -43 -26 25 c-15 13 -135 97
-267 186 -262 177 -510 348 -656 453 -52 37 -206 144 -344 238 -137 94 -296
203 -352 242 l-103 72 0 1230 c0 1274 10 3106 17 3106 3 0 23 -13 46 -29z
m-5036 -1558 c-4 -801 -7 -1745 -7 -2099 l0 -642 -32 -21 c-33 -21 -137 -98
-171 -126 -9 -8 -20 -15 -23 -15 -2 0 -15 -9 -27 -21 -12 -11 -44 -36 -72 -54
-27 -19 -59 -42 -70 -53 -11 -10 -34 -27 -50 -38 -17 -10 -34 -22 -40 -27 -5
-4 -37 -28 -70 -53 -33 -25 -68 -51 -78 -59 -9 -8 -22 -15 -27 -15 -6 0 -10
-4 -10 -8 0 -4 -20 -21 -45 -36 -25 -16 -45 -33 -45 -37 0 -5 -6 -9 -12 -9 -7
0 -28 -14 -47 -30 -18 -17 -37 -30 -40 -30 -3 0 -18 -10 -32 -22 -14 -13 -32
-27 -42 -33 -9 -5 -49 -35 -89 -66 -178 -137 -429 -319 -438 -319 -5 0 -10 -4
-10 -9 0 -4 -27 -27 -60 -50 -33 -23 -66 -48 -74 -56 -8 -8 -19 -15 -25 -15
-6 0 -11 -4 -11 -10 0 -5 -7 -10 -15 -10 -8 0 -15 -3 -15 -7 0 -5 -16 -19 -35
-32 -19 -13 -45 -32 -57 -43 l-23 -20 -6 389 c-4 213 -9 1221 -13 2239 l-7
1851 83 48 c46 26 99 58 118 70 20 13 61 35 90 50 30 15 80 44 110 65 30 20
75 47 100 58 25 12 73 38 107 59 34 21 97 58 140 82 108 62 238 138 298 174
28 17 77 45 110 62 33 17 86 47 118 66 31 19 83 49 115 68 31 19 118 68 193
111 74 42 153 89 174 103 22 15 46 27 54 27 12 0 13 -196 8 -1457z m-14 -4690
c-3 -428 -7 -780 -9 -782 -2 -2 -32 14 -66 36 -35 22 -109 67 -166 99 -57 33
-144 85 -194 117 -51 31 -96 57 -102 57 -6 0 -36 17 -66 37 -30 21 -89 56
-130 78 -41 23 -97 55 -125 72 -27 17 -95 57 -150 88 -84 49 -162 96 -209 127
-15 10 13 31 379 279 187 127 452 307 590 400 137 93 250 169 251 169 1 0 0
-350 -3 -777z m5087 657 c47 -32 109 -69 139 -85 30 -15 84 -46 120 -70 36
-23 104 -65 151 -92 123 -73 186 -111 270 -164 41 -26 107 -65 145 -86 39 -22
87 -50 107 -64 l37 -24 -140 -90 c-76 -49 -196 -126 -265 -170 -70 -44 -222
-143 -338 -219 -187 -123 -320 -206 -332 -206 -2 0 -4 302 -4 671 0 533 3 669
13 663 6 -4 50 -33 97 -64z"/>
</g>
</svg>
